<?xml version="1.0" encoding="UTF-8" standalone="no"?>
<svg width="148px" height="72px" viewBox="0 0 148 72" version="1.1" xmlns="http://www.w3.org/2000/svg" xmlns:xlink="http://www.w3.org/1999/xlink" xmlns:sketch="http://www.bohemiancoding.com/sketch/ns">
    <!-- Generator: Sketch 3.3.3 (12081) - http://www.bohemiancoding.com/sketch -->
    <title>EHE_logo</title>
    <desc>Created with Sketch.</desc>
    <defs></defs>
    <g id="Page-1" stroke="none" stroke-width="1" fill="none" fill-rule="evenodd" sketch:type="MSPage">
        <path d="M0,0 L39.35,0 L39.35,9.934 L9.935,9.934 L9.935,19.676 L0,19.676 L0,0 L0,0 Z M58.795,54.824 L59.127,54.824 L59.127,71.738 L58.795,71.738 L58.795,54.824 Z M44.538,58.914 L43.881,59.166 L46.304,59.166 L46.304,60.025 L42.115,60.025 L42.125,60.025 L40.903,60.025 L40.903,59.166 L43.427,59.166 C43.395,59.135 43.377,59.1 43.377,59.065 C43.246,58.707 43.038,58.27 42.75,57.754 L43.948,57.754 C44.103,58.049 44.299,58.436 44.538,58.914 L44.538,58.914 Z M42.721,62.649 L45.749,62.649 L45.749,63.457 L41.357,63.457 L41.357,62.649 L42.721,62.649 L42.721,62.649 Z M45.671,64.315 C45.641,64.471 45.628,64.742 45.632,65.123 L42.518,65.123 L42.518,67.041 L44.64,67.041 L44.64,66.031 L45.647,66.031 L45.647,66.637 C45.619,67.26 45.628,67.649 45.677,67.799 L42.518,67.799 L42.518,68.809 L41.461,68.809 C41.466,68.723 41.482,68.572 41.51,68.354 L41.51,67.446 L41.51,65.578 L41.51,64.77 C41.483,64.588 41.467,64.436 41.461,64.315 L45.671,64.315 L45.671,64.315 Z M42.721,60.984 L44.235,60.984 C44.342,60.984 44.441,60.983 44.536,60.981 L45.749,60.981 L45.749,61.791 L41.357,61.791 L41.357,60.981 L42.314,60.981 C42.438,60.983 42.574,60.984 42.721,60.984 L42.721,60.984 Z M3.129,58.662 L3.129,59.621 L2.091,59.621 C2.078,59.297 2.07,58.994 2.07,58.713 C2.04,58.303 2.012,57.984 1.983,57.754 L9.915,57.754 C9.846,58.051 9.82,58.674 9.835,59.621 L8.733,59.621 L8.733,58.662 L3.129,58.662 L3.129,58.662 Z M3.988,59.621 L7.874,59.621 L7.874,60.48 L3.988,60.48 L3.988,59.621 Z M3.129,60.481 L3.129,61.44 L3.988,61.44 L3.988,62.348 L1.968,62.348 C1.985,62.18 2.019,61.877 2.07,61.44 C2.07,61.129 2.081,60.809 2.1,60.481 L3.129,60.481 L3.129,60.481 Z M5.049,61.44 L8.733,61.44 L8.733,60.481 L9.845,60.481 C9.854,61.225 9.886,61.848 9.939,62.348 L5.049,62.348 L5.049,61.44 L5.049,61.44 Z M5.049,63.356 L8.934,63.356 C9.124,63.356 9.303,63.354 9.473,63.348 L10.923,63.348 C10.835,63.797 10.762,64.488 10.702,65.426 C10.566,67.008 10.398,67.883 10.196,68.051 C9.927,68.354 9.119,68.606 7.773,68.809 C7.706,68.303 7.487,67.883 7.118,67.547 C8.294,67.715 9.018,67.596 9.287,67.194 C9.524,66.688 9.657,65.68 9.692,64.162 L5.049,64.162 L5.049,63.356 L5.049,63.356 Z M7.939,65.164 C6.984,66.973 5.386,68.063 2.715,68.809 C2.582,68.641 2.441,68.477 2.313,68.305 C2.14,68.074 1.977,67.9 1.809,67.801 C4.198,67.463 5.725,66.701 6.791,65.164 L7.939,65.164 L7.939,65.164 Z M5.042,65.164 C4.169,65.973 3.131,66.555 1.656,67.145 C1.522,66.875 1.253,66.553 0.848,66.186 C2.038,66.002 2.92,65.725 3.712,65.164 L5.042,65.164 L5.042,65.164 Z M3.988,64.162 L3.08,64.162 C2.371,64.736 1.648,65.19 0.909,65.526 C0.64,65.123 0.336,64.838 0,64.67 C0.975,64.438 1.894,63.996 2.757,63.348 L3.988,63.348 L3.988,64.162 L3.988,64.162 Z M17.403,59.016 L17.403,61.186 L19.122,61.186 L19.122,62.096 L17.403,62.096 L16.495,62.096 L13.921,62.096 L13.921,61.186 L16.495,61.186 L17.403,61.186 L17.403,67.194 C17.403,67.865 17.438,68.404 17.504,68.809 L16.445,68.809 C16.512,68.342 16.495,67.774 16.495,67.143 L16.495,63.256 C15.822,64.77 15.116,65.949 14.375,66.789 C14.071,66.316 13.802,65.981 13.567,65.778 C14.543,65.106 15.687,63.879 16.495,62.096 L16.495,59.166 C16.26,59.234 15.603,59.334 14.526,59.471 C14.459,59.303 14.343,59.08 14.173,58.813 C14.108,58.711 14.054,58.612 14.022,58.512 C15.805,58.512 17.386,58.258 18.767,57.754 C18.986,58.188 19.309,58.615 19.563,58.774 C18.831,58.774 18.058,58.783 17.403,59.016 L17.403,59.016 Z M24.623,58.967 L24.623,67.043 C24.623,67.344 24.638,67.934 24.672,68.809 L23.618,68.809 L23.618,68.211 C23.62,68.151 23.62,68.086 23.618,68.016 L23.618,67.697 L21.138,67.697 L21.138,68.809 L20.078,68.809 C20.078,67.799 20.13,67.399 20.13,67.194 L20.13,62.096 L21.138,62.096 L21.138,66.84 L23.613,66.84 L23.613,58.612 L21.138,58.612 L21.138,61.186 L20.13,61.186 L20.13,59.166 C20.13,58.731 20.108,58.276 20.078,57.803 C20.077,57.785 20.077,57.77 20.076,57.754 L24.647,57.754 C24.636,57.793 24.626,57.844 24.623,57.904 C24.599,58.309 24.623,58.662 24.623,58.967 L24.623,58.967 Z M17.403,63.256 L17.758,63.004 C18.06,63.441 19.001,64.065 19.574,64.971 L18.616,65.526 C18.347,64.854 17.843,63.963 17.403,63.256 L17.403,63.256 Z M37.176,57.754 L37.079,59.016 L37.079,60.883 C37.079,61.293 37.768,61.303 38.946,60.932 C38.813,61.27 38.761,61.656 38.795,62.096 L37.022,62.096 C36.382,62.043 36.12,61.744 36.12,61.186 L36.12,58.612 L34.505,58.612 C34.505,60.244 34.026,61.66 33.07,62.473 L32.994,62.494 C32.942,62.488 32.891,62.473 32.838,62.449 C32.468,62.246 32.199,62.111 32.03,62.043 C33.006,61.471 33.593,60.43 33.596,59.316 C33.598,58.793 33.547,58.276 33.544,57.754 L37.176,57.754 L37.176,57.754 Z M30.82,58.914 L30.163,59.166 L32.586,59.166 L32.586,60.025 L28.398,60.025 L28.408,60.025 L27.185,60.025 L27.185,59.166 L29.709,59.166 C29.676,59.135 29.659,59.1 29.659,59.065 C29.528,58.707 29.32,58.27 29.031,57.754 L30.23,57.754 C30.384,58.049 30.581,58.436 30.82,58.914 L30.82,58.914 Z M29.002,62.649 L32.03,62.649 L32.03,63.457 L27.639,63.457 L27.639,62.649 L29.002,62.649 L29.002,62.649 Z M31.953,64.315 C31.923,64.471 31.91,64.742 31.914,65.123 L28.8,65.123 L28.8,67.041 L30.921,67.041 L30.921,66.031 L31.929,66.031 L31.929,66.637 C31.9,67.26 31.91,67.649 31.958,67.799 L28.8,67.799 L28.8,68.809 L27.743,68.809 C27.748,68.723 27.764,68.572 27.792,68.354 L27.792,67.446 L27.792,65.578 L27.792,64.77 C27.765,64.588 27.749,64.436 27.743,64.315 L31.953,64.315 L31.953,64.315 Z M29.002,60.984 L30.517,60.984 C30.623,60.984 30.723,60.983 30.817,60.981 L32.03,60.981 L32.03,61.791 L27.639,61.791 L27.639,60.981 L28.596,60.981 C28.72,60.983 28.855,60.984 29.002,60.984 L29.002,60.984 Z M34.505,62.649 L37.72,62.649 C37.151,64.441 36.517,65.805 35.816,66.738 C36.827,67.379 37.885,67.631 39.028,67.697 C38.658,67.932 38.322,68.303 38.018,68.809 C36.808,68.27 35.868,67.865 35.16,67.395 C34.083,68.033 33.229,68.305 32.254,68.809 C32.1,68.592 31.816,68.305 31.405,67.947 L31.71,67.895 C32.501,67.865 33.598,67.307 34.505,66.738 C33.86,65.813 33.426,65.006 33.2,64.315 L34.171,64.315 C34.425,65.039 34.755,65.645 35.16,66.133 C35.799,65.225 36.236,64.348 36.474,63.508 L32.638,63.508 L32.638,62.649 L34.505,62.649 L34.505,62.649 Z M49.789,58.51 L49.789,61.484 L48.829,61.484 L48.829,58.764 C48.829,58.494 48.842,58.225 48.829,57.955 C48.823,57.846 48.822,57.83 48.779,57.754 L48.78,57.754 C49.194,57.84 49.471,57.889 49.919,57.932 C49.801,58.068 49.789,58.209 49.789,58.51 L49.789,58.51 Z M49.798,61.488 L50.647,61.488 C50.825,61.488 50.991,61.486 51.146,61.484 L52.514,61.484 L52.514,62.344 L49.798,62.344 L49.798,61.488 L49.798,61.488 Z M49.789,62.348 L49.789,68.252 C49.789,68.471 49.789,68.643 49.835,68.809 L48.781,68.809 C48.829,68.604 48.829,68.49 48.829,68.252 L48.829,61.488 L46.305,61.488 L46.305,62.348 L49.789,62.348 L49.789,62.348 Z M65.382,68.256 L65.382,63.834 L66.487,63.834 L66.487,67.15 L72.015,67.15 L72.015,68.256 L65.382,68.256 L65.382,68.256 Z M65.382,62.729 L65.382,58.307 L72.015,58.307 L72.015,59.412 L66.487,59.412 L66.487,62.729 L65.382,62.729 L65.382,62.729 Z M66.487,62.729 L72.014,62.729 L72.014,63.834 L66.487,63.834 L66.487,62.729 Z M138.563,63.836 L139.668,63.836 L139.668,68.248 L138.563,68.248 L138.563,63.836 Z M138.563,62.731 L138.563,58.315 L143.197,62.731 L141.612,62.731 L139.668,60.877 L139.668,62.731 L138.563,62.731 L138.563,62.731 Z M144.357,63.836 L146.297,65.686 L146.297,63.836 L147.401,63.836 L147.401,68.248 L142.772,63.836 L144.357,63.836 L144.357,63.836 Z M146.297,58.315 L147.401,58.315 L147.401,62.731 L146.297,62.731 L146.297,58.315 Z M93.551,67.15 L93.551,63.834 L94.656,63.834 L94.656,67.15 L97.42,67.15 C99.368,67.15 100.98,65.709 101.249,63.834 L102.363,63.834 C102.089,66.321 99.979,68.256 97.42,68.256 L93.55,68.256 L93.55,67.15 L93.551,67.15 L93.551,67.15 Z M93.551,62.729 L93.551,58.307 L97.42,58.307 C99.979,58.307 102.088,60.242 102.363,62.729 L101.249,62.729 C100.98,60.854 99.368,59.412 97.42,59.412 L94.656,59.412 L94.656,62.729 L93.551,62.729 L93.551,62.729 Z M131.231,58.307 C128.671,58.307 126.562,60.242 126.287,62.729 L127.401,62.729 C127.67,60.854 129.282,59.412 131.231,59.412 C132.774,59.412 134.106,60.316 134.728,61.623 L135.922,61.623 C135.239,59.691 133.397,58.307 131.231,58.307 L131.231,58.307 Z M126.287,63.834 C126.563,66.321 128.671,68.256 131.231,68.256 C133.791,68.256 135.899,66.321 136.175,63.834 L135.06,63.834 C134.792,65.709 133.18,67.15 131.231,67.15 C129.282,67.15 127.67,65.709 127.401,63.834 L126.287,63.834 L126.287,63.834 Z M131.231,63.834 L135.06,63.834 L135.06,62.729 L131.231,62.729 L131.231,63.834 Z M122.793,63.834 L123.898,63.834 L123.898,68.256 L122.793,68.256 L122.793,63.834 Z M122.793,58.307 L123.898,58.307 L123.898,62.729 L122.793,62.729 L122.793,58.307 Z M84.529,68.256 L84.529,63.834 L85.635,63.834 L85.635,67.15 L91.162,67.15 L91.162,68.256 L84.529,68.256 L84.529,68.256 Z M84.529,62.729 L84.529,58.307 L91.162,58.307 L91.162,59.412 L85.635,59.412 L85.635,62.729 L84.529,62.729 L84.529,62.729 Z M85.635,62.729 L91.162,62.729 L91.162,63.834 L85.635,63.834 L85.635,62.729 Z M81.036,68.256 L81.036,58.307 L82.142,58.307 L82.142,62.729 L75.508,62.729 L75.508,63.834 L82.142,63.834 L82.142,68.256 L81.036,68.256 L81.036,68.256 Z M74.402,63.834 L75.507,63.834 L75.507,68.256 L74.402,68.256 L74.402,63.834 Z M74.402,58.307 L75.507,58.307 L75.507,62.729 L74.402,62.729 L74.402,58.307 Z M104.752,68.256 L104.752,63.834 L105.857,63.834 L105.857,67.15 L111.385,67.15 L111.385,68.256 L104.752,68.256 L104.752,68.256 Z M104.752,62.729 L104.752,58.307 L111.385,58.307 L111.385,59.412 L105.857,59.412 L105.857,62.729 L104.752,62.729 L104.752,62.729 Z M105.857,62.729 L111.384,62.729 L111.384,63.834 L105.857,63.834 L105.857,62.729 Z M117.089,58.307 C115.258,58.307 113.772,59.543 113.772,61.071 C113.772,62.44 114.968,63.576 116.536,63.795 L116.536,62.676 C115.582,62.492 114.878,61.844 114.878,61.071 C114.878,60.154 115.867,59.412 117.089,59.412 C118.31,59.412 119.3,60.154 119.3,61.071 L120.405,61.071 L120.405,61.082 L120.405,61.071 C120.405,59.543 118.92,58.307 117.089,58.307 L117.089,58.307 Z M117.642,63.885 C118.596,64.071 119.3,64.719 119.3,65.492 C119.3,66.408 118.31,67.15 117.089,67.15 C115.867,67.15 114.878,66.408 114.878,65.492 L113.772,65.492 L113.772,65.481 L113.772,65.492 C113.772,67.018 115.258,68.256 117.089,68.256 C118.92,68.256 120.405,67.018 120.405,65.492 C120.405,64.123 119.21,62.986 117.642,62.766 L117.642,63.885 L117.642,63.885 Z M147.401,29.696 L137.466,29.696 L137.466,39.436 L108.051,39.436 L108.051,49.176 L147.401,49.176 L147.401,29.696 L147.401,29.696 Z M108.051,29.696 L127.727,29.696 L127.727,19.76 L108.051,19.76 L108.051,29.696 Z M147.401,0.086 L108.051,0.086 L108.051,10.02 L137.466,10.02 L137.466,19.76 L147.401,19.76 L147.401,0.086 L147.401,0.086 Z M59.025,19.676 L88.44,19.676 L88.44,9.934 L78.506,9.934 L78.506,0 L98.182,0 L98.182,19.676 L88.44,19.676 L88.44,29.609 L98.182,29.609 L98.182,49.09 L78.506,49.09 L78.506,39.35 L88.44,39.35 L88.44,29.609 L59.025,29.609 L59.025,39.35 L68.766,39.35 L68.766,49.09 L49.09,49.09 L49.09,29.609 L59.025,29.609 L59.025,19.676 L49.09,19.676 L49.09,0 L68.766,0 L68.766,9.934 L59.025,9.934 L59.025,19.676 L59.025,19.676 Z M0,29.609 L9.935,29.609 L9.935,39.35 L39.35,39.35 L39.35,49.09 L0,49.09 L0,29.609 L0,29.609 Z M19.675,19.676 L39.35,19.676 L39.35,29.61 L19.675,29.61 L19.675,19.676 Z" id="Imported-Layers" fill="#1A1918" sketch:type="MSShapeGroup"></path>
    </g>
</svg>